<svg xmlns="http://www.w3.org/2000/svg" version="1.1" xmlns:xlink="http://www.w3.org/1999/xlink" xmlns:svgjs="http://svgjs.dev/svgjs" width="1000" height="257" viewBox="0 0 1000 257"><g transform="matrix(1,0,0,1,-0.6060515280454979,0.005348510431190334)"><svg viewBox="0 0 396 102" data-background-color="#111111" preserveAspectRatio="xMidYMid meet" height="257" width="1000" xmlns="http://www.w3.org/2000/svg" xmlns:xlink="http://www.w3.org/1999/xlink"><g id="tight-bounds" transform="matrix(1,0,0,1,0.2399964051060124,-0.0021227551127651623)"><svg viewBox="0 0 395.52 102.00397650323708" height="102.00397650323708" width="395.52"><g><svg viewBox="0 0 624.1394804848375 160.96457550090506" height="102.00397650323708" width="395.52"><g transform="matrix(1,0,0,1,228.6194804848375,8.837028401839746)"><svg viewBox="0 0 395.52 143.29051869722556" height="143.29051869722556" width="395.52"><g id="textblocktransform"><svg viewBox="0 0 395.52 143.29051869722556" height="143.29051869722556" width="395.52" id="textblock"><g><svg viewBox="0 0 395.52 143.29051869722556" height="143.29051869722556" width="395.52"><g transform="matrix(1,0,0,1,0,0)"><svg width="395.52" viewBox="3.6500000953674316 -35.349998474121094 124.33999633789062 45.04999923706055" height="143.29051869722556" data-palette-color="#9a96c6"><path d="M23.1-4.3L23.1 0 3.65 0 3.65-33.7 22.85-33.7 22.85-29.4 8.8-29.4 8.8-19 21.25-19 21.25-14.7 8.8-14.7 8.8-4.3 23.1-4.3ZM32.8-12.45L32.8-12.45Q32.8-8.65 34.67-6.3 36.55-3.95 39.4-3.95L39.4-3.95Q42.3-3.95 44.3-6.15 46.3-8.35 46.3-12.85L46.3-12.85Q46.3-17.2 44.22-19.3 42.15-21.4 39.55-21.4L39.55-21.4Q36.6-21.4 34.7-19.07 32.8-16.75 32.8-12.45ZM51.25-35.35L51.25 0 46.3 0 46.3-3.85Q43.65 0.35 38.55 0.35L38.55 0.35Q33.55 0.35 30.65-3.43 27.75-7.2 27.75-12.55L27.75-12.55Q27.75-18.5 30.8-22.1 33.85-25.7 38.65-25.7L38.65-25.7Q43.6-25.7 46.3-21.5L46.3-21.5 46.3-35.35 51.25-35.35ZM78.8-25.35L78.8 0 73.9 0 73.9-4.35Q71.9 0.3 66 0.3L66 0.3Q62.25 0.3 60.05-1.93 57.85-4.15 57.85-8.05L57.85-8.05 57.85-25.35 62.8-25.35 62.8-9.25Q62.8-6.65 64.07-5.28 65.35-3.9 67.6-3.9L67.6-3.9Q70.45-3.9 72.17-5.9 73.9-7.9 73.9-11.55L73.9-11.55 73.9-25.35 78.8-25.35ZM90.59-3.85L90.59 9.7 85.69 9.7 85.69-25.35 90.59-25.35 90.59-21.45Q93.19-25.7 98.39-25.7L98.39-25.7Q103.39-25.7 106.29-22.08 109.19-18.45 109.19-12.85L109.19-12.85Q109.19-7.1 106.22-3.38 103.24 0.35 98.29 0.35L98.29 0.35Q93.24 0.35 90.59-3.85L90.59-3.85ZM90.59-12.75L90.59-12.75Q90.59-8.35 92.67-6.15 94.74-3.95 97.39-3.95L97.39-3.95Q100.34-3.95 102.24-6.28 104.14-8.6 104.14-12.8L104.14-12.8Q104.14-16.75 102.29-19.07 100.44-21.4 97.59-21.4 94.74-21.4 92.67-19.33 90.59-17.25 90.59-12.75ZM127.99-5.05L127.99-0.65Q126.34 0.25 123.94 0.25L123.94 0.25Q116.09 0.25 116.09-7.7L116.09-7.7 116.09-21.55 112.14-21.55 112.14-25.35 116.09-25.35 116.09-31.55 121.04-31.55 121.04-25.35 127.69-25.35 127.69-21.55 121.04-21.55 121.04-7.6Q121.04-3.95 124.54-3.95L124.54-3.95Q126.59-3.95 127.99-5.05L127.99-5.05Z" opacity="1" transform="matrix(1,0,0,1,0,0)" fill="#9a96c6" class="wordmark-text-0" data-fill-palette-color="primary" id="text-0"></path></svg></g></svg></g></svg></g></svg></g><g><svg viewBox="0 0 160.96457550090506 160.96457550090506" height="160.96457550090506" width="160.96457550090506"><g><svg></svg></g><g id="icon-0"><svg viewBox="0 0 160.96457550090506 160.96457550090506" height="160.96457550090506" width="160.96457550090506"><g><path d="M0 80.482c0-44.449 36.033-80.482 80.482-80.482 44.449 0 80.482 36.033 80.483 80.482 0 44.449-36.033 80.482-80.483 80.483-44.449 0-80.482-36.033-80.482-80.483zM80.482 148.042c37.312 0 67.56-30.248 67.56-67.56 0-37.312-30.248-67.56-67.56-67.56-37.312 0-67.56 30.248-67.56 67.56 0 37.312 30.248 67.56 67.56 67.56z" data-fill-palette-color="accent" fill="#8e85e6" stroke="transparent"></path><ellipse rx="79.67746487294801" ry="79.67746487294801" cx="80.48228775045253" cy="80.48228775045253" fill="#8e85e6" stroke="transparent" stroke-width="0" fill-opacity="1" data-fill-palette-color="accent"></ellipse></g><g transform="matrix(1,0,0,1,42.657269203989905,40.445538328271695)"><svg viewBox="0 0 75.65003709292525 80.07349884436167" height="80.07349884436167" width="75.65003709292525"><g><svg xmlns="http://www.w3.org/2000/svg" xmlns:xlink="http://www.w3.org/1999/xlink" version="1.1" x="0" y="0" viewBox="8.3388671875 5.307672500610352 84.076171875 88.9923324584961" style="enable-background:new 0 0 100 100;" xml:space="preserve" height="80.07349884436167" width="75.65003709292525" class="icon-s-0" data-fill-palette-color="quaternary" id="s-0"><path d="M39.5 94.3c-3.6 0-7.2-0.7-10.6-2.3-8.3-3.7-14-11.2-15.2-20.2L8.6 35C7.2 25 11.5 15.4 19.8 9.8c8.3-5.6 18.8-6 27.5-1l32.1 18.4c7.8 4.5 12.7 12.5 13 21.5s-3.9 17.4-11.3 22.5l-27 18.4C49.7 92.8 44.6 94.3 39.5 94.3zM34.3 14.3c-3.3 0-6.6 1-9.5 3-5.5 3.7-8.3 9.9-7.3 16.4l5.1 36.9c0.8 5.9 4.5 10.8 10 13.2 5.4 2.4 11.6 1.8 16.5-1.5l27-18.4c4.9-3.3 7.6-8.8 7.4-14.7C83.2 43.3 80 38 74.9 35.1L42.9 16.6C40.2 15.1 37.2 14.3 34.3 14.3z" fill="#222529" data-fill-palette-color="quaternary"></path></svg></g></svg></g></svg></g></svg></g></svg></g><defs></defs></svg><rect width="395.52" height="102.00397650323708" fill="none" stroke="none" visibility="hidden"></rect></g></svg></g></svg>